<svg width="12" height="7" viewBox="0 0 12 7" fill="none" xmlns="http://www.w3.org/2000/svg">
<path d="M6 6.92842C5.8565 6.92842 5.71731 6.90224 5.58242 6.8499C5.44753 6.79755 5.33561 6.72776 5.24664 6.64052L0.295964 1.82483C0.0986543 1.6329 0 1.38862 0 1.09201C0 0.795387 0.0986543 0.551113 0.295964 0.359183C0.493273 0.167254 0.744394 0.0712891 1.04933 0.0712891C1.35426 0.0712891 1.60538 0.167254 1.80269 0.359183L6 4.44205L10.1973 0.359183C10.3946 0.167254 10.6457 0.0712891 10.9507 0.0712891C11.2556 0.0712891 11.5067 0.167254 11.704 0.359183C11.9013 0.551113 12 0.795387 12 1.09201C12 1.38862 11.9013 1.6329 11.704 1.82483L6.75336 6.64052C6.64574 6.74521 6.52915 6.81954 6.40359 6.86351C6.27803 6.90748 6.1435 6.92911 6 6.92842Z" fill="#2E0049"/>
</svg>
